<svg width="605" height="611" viewBox="0 0 405 311" fill="none" xmlns="http://www.w3.org/2000/svg">
<g id="scene">
<g id="environment">
<path id="Vector" d="M355.281 151.486H351.676V302.925H355.281V151.486Z" fill="#3F3D56"/>
<path id="Vector_2" d="M388.552 170.785C388.782 223.74 353.748 266.84 353.748 266.84C353.748 266.84 318.343 224.085 318.114 171.13C317.884 118.176 352.917 75.0747 352.917 75.0747C352.917 75.0747 388.323 117.83 388.552 170.785Z" fill="#3F3D56"/>
<path id="Vector_3" d="M283.197 222.74H281.342V300.629H283.197V222.74Z" fill="#3F3D56"/>
<path id="Vector_4" d="M300.309 232.666C300.427 259.902 282.408 282.07 282.408 282.07C282.408 282.07 264.199 260.08 264.081 232.844C263.962 205.608 281.981 183.44 281.981 183.44C281.981 183.44 300.191 205.431 300.309 232.666Z" fill="#3F3D56"/>
<path id="Vector_5" d="M319.744 311C347.489 311 369.981 307.334 369.981 302.811C369.981 298.288 347.489 294.622 319.744 294.622C291.999 294.622 269.507 298.288 269.507 302.811C269.507 307.334 291.999 311 319.744 311Z" fill="#3F3D56"/>
</g>
<g id="person">
<path id="Vector_6" d="M323.887 111.951C319.631 104.303 311.211 103.946 311.211 103.946C311.211 103.946 303.006 102.83 297.742 114.478C292.836 125.335 286.065 135.818 296.652 138.359L298.564 132.029L299.748 138.83C301.256 138.946 302.768 138.973 304.278 138.913C315.616 138.523 326.414 139.027 326.066 134.7C325.604 128.948 327.983 119.309 323.887 111.951Z" fill="#2F2E41"/>
<path id="Vector_7" d="M308.56 126.353C308.56 126.353 314.06 134.543 310.76 141.172C307.46 147.801 318.461 154.821 318.461 154.821L326.528 136.102C326.528 136.102 316.994 129.473 319.561 123.234L308.56 126.353Z" fill="#FBBEBE"/>
<path id="Vector_8" d="M312.227 129.863C317.492 129.863 321.761 125.324 321.761 119.724C321.761 114.124 317.492 109.585 312.227 109.585C306.961 109.585 302.693 114.124 302.693 119.724C302.693 125.324 306.961 129.863 312.227 129.863Z" fill="#FBBEBE"/>
<path id="Vector_9" d="M279.232 131.445L287.2 120.513C287.2 120.513 290.005 109.054 294.068 109.634C298.131 110.215 292.463 123.377 292.463 123.377L284.547 135.477L279.232 131.445Z" fill="#FBBEBE"/>
<path id="Vector_10" d="M319.561 276.878L322.128 291.307L327.628 292.867L326.161 275.708L319.561 276.878Z" fill="#FBBEBE"/>
<path id="Vector_11" d="M374.931 261.28L384.832 275.708L388.866 277.658L392.166 271.809L382.265 258.16L374.931 261.28Z" fill="#FBBEBE"/>
<path id="Vector_12" d="M317.361 148.581L311.244 140.018C311.244 140.018 299.393 142.342 298.293 143.512C297.193 144.682 301.226 166.129 301.226 166.129C301.226 166.129 301.96 171.979 305.26 175.098L308.56 177.438L335.695 171.589L336.715 158.749C337.087 154.072 336.536 149.365 335.097 144.928C333.659 140.491 331.364 136.422 328.361 132.983V132.983L323.64 133.669L317.361 148.581Z" fill="#575A89"/>
<path id="Vector_13" d="M299.759 144.292L297.926 143.512L289.492 142.732C289.492 142.732 286.558 141.952 287.292 140.392C288.025 138.832 288.759 138.442 287.292 138.052C285.825 137.662 285.458 137.272 285.825 136.102C286.192 134.932 288.392 132.593 288.392 132.593L282.158 127.133C282.158 127.133 281.821 127.387 281.275 127.857C278.18 130.521 268.387 140.136 275.558 149.751C283.992 161.06 293.892 167.689 301.959 165.349L299.759 144.292Z" fill="#575A89"/>
<path id="Vector_14" d="M307.827 175.488V180.948C307.827 180.948 304.526 187.577 305.626 193.817C306.726 200.056 307.093 203.176 307.093 203.176C307.213 208.482 308.078 213.74 309.66 218.774C312.227 226.573 303.793 277.658 314.427 278.438C325.061 279.218 330.928 279.998 334.228 276.098C337.529 272.199 328.728 205.126 328.728 205.126C328.728 205.126 358.797 271.809 365.031 269.079C371.264 266.349 387.032 260.11 385.199 256.6C383.365 253.091 337.162 175.098 337.162 175.098L335.695 171.589L307.827 175.488Z" fill="#2F2E41"/>
<path id="Vector_15" d="M325.428 288.577C325.428 288.577 319.561 288.187 319.561 290.137C319.561 292.087 316.627 298.716 316.627 298.716C316.627 298.716 314.427 306.515 320.294 305.736C326.161 304.956 329.828 297.936 329.828 297.936L328.361 290.527L325.428 288.577Z" fill="#2F2E41"/>
<path id="Vector_16" d="M386.665 274.929C386.665 274.929 381.532 271.419 381.898 273.759C382.265 276.098 382.632 282.338 385.199 282.728C387.765 283.118 395.466 285.458 395.833 286.237C396.199 287.017 405 290.137 405 285.068C405 279.998 399.5 276.098 399.5 276.098L393.266 271.029C393.266 271.029 389.232 270.639 388.499 273.369C387.765 276.098 386.665 274.929 386.665 274.929Z" fill="#2F2E41"/>
<path id="Vector_17" d="M312.241 110.46C315.604 110.46 318.33 107.561 318.33 103.985C318.33 100.409 315.604 97.5101 312.241 97.5101C308.879 97.5101 306.153 100.409 306.153 103.985C306.153 107.561 308.879 110.46 312.241 110.46Z" fill="#2F2E41"/>
<path id="Vector_18" d="M305.512 102.281C305.512 100.682 306.069 99.1394 307.075 97.9506C308.08 96.7619 309.464 96.011 310.96 95.8426C310.747 95.8186 310.533 95.8064 310.319 95.8062C308.704 95.8062 307.155 96.4883 306.013 97.7026C304.872 98.9169 304.23 100.564 304.23 102.281C304.23 103.998 304.872 105.645 306.013 106.859C307.155 108.074 308.704 108.756 310.319 108.756C310.533 108.756 310.747 108.743 310.96 108.719C309.464 108.551 308.08 107.8 307.075 106.611C306.069 105.423 305.512 103.88 305.512 102.281V102.281Z" fill="#2F2E41"/>
<path id="Vector_19" d="M322.006 111.213L313.687 106.579L302.198 108.475L299.821 119.639L305.738 119.397L307.391 115.296V119.329L310.121 119.218L311.706 112.688L312.696 119.639L322.402 119.428L322.006 111.213Z" fill="#2F2E41"/>
<path id="Vector_20" d="M321.508 176.392L308.678 176.761C308.678 176.761 297.731 179.026 298.345 174.327C298.959 169.628 309.639 171.272 309.639 171.272L321.329 169.375L321.508 176.392Z" fill="#FBBEBE"/>
<path id="Vector_21" d="M331.658 132.322C332.303 132.218 332.962 132.362 333.515 132.729C334.069 133.095 334.481 133.66 334.678 134.321C337.19 142.738 344.928 170.905 337.24 174.769C328.185 179.321 321.577 179.121 321.577 179.121L318.04 169.86L321.26 166.646L324.697 143.141L326.345 133.178L331.658 132.322Z" fill="#575A89"/>
<path id="Vector_22" opacity="0.4" d="M329.278 147.996L327.811 163.595L314.977 169.444L329.278 165.934V147.996Z" fill="black"/>
</g>
<g id="torch">
<path id="Vector_23" d="M260.063 96.5008C264.197 97.6657 267.774 100.429 270.093 104.249L271.293 106.225L271.353 106.306L292.396 112.854C292.781 112.974 293.107 113.251 293.304 113.624C293.5 113.997 293.55 114.437 293.445 114.849L291.811 121.219C291.758 121.427 291.667 121.621 291.542 121.791C291.418 121.96 291.264 122.103 291.088 122.209C290.912 122.315 290.718 122.383 290.517 122.409C290.317 122.435 290.113 122.419 289.918 122.361L268.87 116.104L268.87 116.105L266.756 116.955C262.864 118.52 258.594 118.674 254.611 117.394V117.394L260.063 96.5008Z" fill="#3F3D56"/>
<path id="Vector_24" d="M282.224 114.975C282.423 114.25 281.549 113.341 280.272 112.944C278.995 112.546 277.798 112.811 277.599 113.536C277.399 114.26 278.273 115.169 279.55 115.567C280.827 115.964 282.024 115.699 282.224 114.975Z" fill="#575A89"/>
<path id="Vector_25" d="M281.149 115.643C281.637 115.643 282.032 115.222 282.032 114.703C282.032 114.184 281.637 113.764 281.149 113.764C280.661 113.764 280.265 114.184 280.265 114.703C280.265 115.222 280.661 115.643 281.149 115.643Z" fill="#3F3D56"/>
<path id="Vector_26" d="M261.822 108.566C263.577 102.812 263.016 97.4624 260.569 96.6185C258.122 95.7747 254.715 99.7558 252.961 105.511C251.206 111.265 251.767 116.615 254.214 117.459C256.662 118.302 260.068 114.321 261.822 108.566Z" fill="#00D1B2"/>
<path id="Vector_27" opacity="0.4" d="M261.168 108.363C262.859 102.818 262.399 97.6499 260.174 96.5257C260.308 96.5434 260.44 96.5745 260.569 96.6185C263.016 97.4624 263.577 102.812 261.822 108.567C260.068 114.321 256.662 118.302 254.214 117.459C254.126 117.428 254.039 117.391 253.955 117.348C256.362 117.674 259.506 113.815 261.168 108.363Z" fill="black"/>
</g>
<g id="haze">
<path id="Vector_28" d="M260.34 96.5213L212.583 57.1254C204.138 50.1086 196.034 42.6396 188.302 34.7472C174.689 20.9474 156.208 9.91419 134.691 4.04001C82.4153 -10.2317 41.002 15.0738 22.166 52.2307C-6.6173 109.011 -28.6759 201.149 98.9492 152.104C126.861 141.378 155.113 140.238 176.536 134.588L254.106 117.579L260.34 96.5213Z" fill="#00D1B2"/>
<path id="Vector_29" d="M116.963 30.2279C118.381 30.2279 119.53 29.0057 119.53 27.4981C119.53 25.9906 118.381 24.7684 116.963 24.7684C115.546 24.7684 114.396 25.9906 114.396 27.4981C114.396 29.0057 115.546 30.2279 116.963 30.2279Z" fill="#F2F2F2"/>
<path id="Vector_30" d="M166.826 33.8077H166.158V33.0972H166.028V33.8077H165.359V33.9465H166.028V34.657H166.158V33.9465H166.826V33.8077Z" fill="#F2F2F2"/>
<path id="Vector_31" d="M233.931 93.0818H233.263V92.3713H233.132V93.0818H232.464V93.2206H233.132V93.9311H233.263V93.2206H233.931V93.0818Z" fill="#F2F2F2"/>
<path id="Vector_32" d="M229.164 111.41H228.496V110.699H228.365V111.41H227.697V111.549H228.365V112.259H228.496V111.549H229.164V111.41Z" fill="#F2F2F2"/>
<path id="Vector_33" d="M24.183 127.008H23.5149V126.298H23.3843V127.008H22.7162V127.147H23.3843V127.858H23.5149V127.147H24.183V127.008Z" fill="#F2F2F2"/>
<path id="Vector_34" d="M53.5184 41.9969H52.8502V41.2864H52.7197V41.9969H52.0516V42.1357H52.7197V42.8462H52.8502V42.1357H53.5184V41.9969Z" fill="#F2F2F2"/>
<path id="Vector_35" d="M167.56 114.53H166.892V113.819H166.761V114.53H166.093V114.668H166.761V115.379H166.892V114.668H167.56V114.53Z" fill="#F2F2F2"/>
<path id="Vector_36" d="M97.5214 17.0394H96.8533V16.3289H96.7228V17.0394H96.0547V17.1782H96.7228V17.8887H96.8533V17.1782H97.5214V17.0394Z" fill="#F2F2F2"/>
<path id="Vector_37" d="M97.7782 73.1852L96.9458 73.3217C97.2062 75.0921 97.4115 76.9015 97.5619 78.6915L98.4016 78.6135C98.2512 76.8001 98.0422 74.9751 97.7782 73.1852Z" fill="#E6E6E6"/>
<path id="Vector_38" d="M95.501 62.5237L94.6943 62.7849C95.182 64.5008 95.6184 66.2595 95.9887 68.0104L96.8138 67.8115C96.4361 66.0411 95.9924 64.2629 95.501 62.5237Z" fill="#E6E6E6"/>
<path id="Vector_39" d="M91.8671 52.2989L91.1007 52.6732C91.8048 54.3072 92.4648 55.984 93.0625 57.6608L93.8509 57.345C93.2459 55.6486 92.5822 53.9484 91.8671 52.2989Z" fill="#E6E6E6"/>
<path id="Vector_40" d="M86.9534 42.7136L86.2421 43.1933C87.1478 44.7063 88.0169 46.274 88.8236 47.8455L89.5643 47.4166C88.7502 45.8255 87.8702 44.2423 86.9534 42.7136Z" fill="#E6E6E6"/>
<path id="Vector_41" d="M80.8444 33.9278L80.2027 34.5088C81.2954 35.8737 82.3588 37.301 83.3635 38.7438L84.0383 38.2096C83.0262 36.7511 81.9517 35.3083 80.8444 33.9278Z" fill="#E6E6E6"/>
<path id="Vector_42" d="M73.6645 26.1052L73.1035 26.772C74.3649 27.9692 75.6006 29.2288 76.7777 30.5117L77.3828 29.8839C76.191 28.5853 74.9406 27.3141 73.6645 26.1052Z" fill="#E6E6E6"/>
<path id="Vector_43" d="M65.5533 19.39L65.0803 20.131C66.481 21.1332 67.8671 22.2017 69.1982 23.3052L69.7189 22.5994C68.3695 21.4841 66.9687 20.4039 65.5533 19.39Z" fill="#E6E6E6"/>
<path id="Vector_44" d="M58.1718 14.7261V15.74C59.0482 16.2275 59.9172 16.7383 60.768 17.2609L61.1897 16.4848C60.1996 15.8765 59.1936 15.2902 58.1718 14.7261Z" fill="#E6E6E6"/>
<path id="Vector_45" d="M97.835 84.2233L98.6779 84.207C98.6934 85.1122 98.6946 86.0221 98.6814 86.9118L97.8385 86.8978C97.8513 86.0183 97.8502 85.1184 97.835 84.2233Z" fill="#E6E6E6"/>
<path id="Vector_46" d="M48.2748 150.008L47.4424 150.144C47.7027 151.914 47.9081 153.724 48.0584 155.514L48.8981 155.436C48.7478 153.623 48.5388 151.798 48.2748 150.008Z" fill="#E6E6E6"/>
<path id="Vector_47" d="M45.9976 139.346L45.1909 139.607C45.6786 141.323 46.1149 143.082 46.4853 144.833L47.3103 144.634C46.9326 142.863 46.489 141.085 45.9976 139.346Z" fill="#E6E6E6"/>
<path id="Vector_48" d="M42.3637 129.121L41.5973 129.496C42.3014 131.13 42.9614 132.806 43.5591 134.483L44.3475 134.167C43.7425 132.471 43.0787 130.771 42.3637 129.121Z" fill="#E6E6E6"/>
<path id="Vector_49" d="M37.45 119.536L36.7386 120.016C37.6443 121.529 38.5134 123.096 39.3201 124.668L40.0608 124.239C39.2468 122.648 38.3667 121.065 37.45 119.536Z" fill="#E6E6E6"/>
<path id="Vector_50" d="M31.3409 110.75L30.6992 111.331C31.792 112.696 32.8554 114.123 33.8601 115.566L34.5348 115.032C33.5227 113.574 32.4483 112.131 31.3409 110.75Z" fill="#E6E6E6"/>
<path id="Vector_51" d="M24.1611 102.928L23.6 103.594C24.8615 104.792 26.0972 106.051 27.2743 107.334L27.8793 106.706C26.6876 105.408 25.4372 104.136 24.1611 102.928Z" fill="#E6E6E6"/>
<path id="Vector_52" d="M16.0498 96.2124L15.5768 96.9533C16.9776 97.9555 18.3637 99.024 19.6948 100.128L20.2155 99.4218C18.866 98.3065 17.4653 97.2263 16.0498 96.2124Z" fill="#E6E6E6"/>
<path id="Vector_53" d="M8.66832 91.5485V92.5624C9.54471 93.0498 10.4138 93.5607 11.2645 94.0832L11.6862 93.3072C10.6961 92.6989 9.69016 92.1126 8.66832 91.5485Z" fill="#E6E6E6"/>
<path id="Vector_54" d="M48.3316 161.046L49.1745 161.029C49.19 161.935 49.1911 162.845 49.1779 163.734L48.3351 163.72C48.3479 162.841 48.3468 161.941 48.3316 161.046Z" fill="#E6E6E6"/>
<path id="Vector_55" d="M217.687 111.401L216.854 111.538C217.115 113.308 217.32 115.118 217.47 116.908L218.31 116.83C218.16 115.016 217.951 113.191 217.687 111.401Z" fill="#E6E6E6"/>
<path id="Vector_56" d="M215.409 100.74L214.603 101.001C215.09 102.717 215.527 104.476 215.897 106.227L216.722 106.028C216.344 104.257 215.901 102.479 215.409 100.74Z" fill="#E6E6E6"/>
<path id="Vector_57" d="M211.775 90.5151L211.009 90.8894C211.713 92.5234 212.373 94.2002 212.971 95.877L213.759 95.5612C213.154 93.8648 212.491 92.1646 211.775 90.5151Z" fill="#E6E6E6"/>
<path id="Vector_58" d="M206.862 80.9298L206.15 81.4095C207.056 82.9225 207.925 84.4902 208.732 86.0617L209.473 85.6328C208.659 84.0417 207.779 82.4585 206.862 80.9298Z" fill="#E6E6E6"/>
<path id="Vector_59" d="M200.753 72.144L200.111 72.725C201.204 74.0899 202.267 75.5172 203.272 76.96L203.947 76.4258C202.935 74.9673 201.86 73.5245 200.753 72.144Z" fill="#E6E6E6"/>
<path id="Vector_60" d="M193.573 64.3214L193.012 64.9882C194.273 66.1854 195.509 67.445 196.686 68.7279L197.291 68.1001C196.099 66.8015 194.849 65.5303 193.573 64.3214Z" fill="#E6E6E6"/>
<path id="Vector_61" d="M185.462 57.6062L184.989 58.3472C186.389 59.3494 187.775 60.4179 189.107 61.5215L189.627 60.8156C188.278 59.7003 186.877 58.6202 185.462 57.6062Z" fill="#E6E6E6"/>
<path id="Vector_62" d="M178.08 52.9423V53.9562C178.956 54.4437 179.826 54.9545 180.676 55.4771L181.098 54.701C180.108 54.0927 179.102 53.5065 178.08 52.9423Z" fill="#E6E6E6"/>
<path id="Vector_63" d="M217.743 122.44L218.586 122.423C218.602 123.328 218.603 124.238 218.59 125.128L217.747 125.114C217.76 124.234 217.759 123.335 217.743 122.44Z" fill="#E6E6E6"/>
<path id="Vector_64" d="M54.7453 77.9513H54.1238V77.2899H54.0024V77.9513H53.3805V78.08H54.0024V78.7414H54.1238V78.08H54.7453V77.9513Z" fill="#F2F2F2"/>
<path id="Vector_65" d="M47.5798 117.867H46.9582V117.205H46.8369V117.867H46.215V117.996H46.8369V118.657H46.9582V117.996H47.5798V117.867Z" fill="#F2F2F2"/>
<path id="Vector_66" d="M26.5547 152.849H25.9328V152.188H25.8115V152.849H25.1899V152.978H25.8115V153.639H25.9328V152.978H26.5547V152.849Z" fill="#F2F2F2"/>
</g>
<g id="questionMark">
<path id="Vector_67" d="M85.0427 108.481C79.0314 98.9779 76.4213 87.4989 77.6857 76.1253C78.9502 64.7516 84.0055 54.2365 91.9348 46.4866C99.8642 38.7367 110.143 34.2653 120.906 33.8833C131.669 33.5013 142.205 37.2339 150.603 44.4043C159.001 51.5747 164.704 61.7081 166.679 72.9668C168.653 84.2254 166.769 95.8639 161.366 105.772C155.964 115.679 147.402 123.2 137.233 126.971C127.064 130.741 115.961 130.511 105.938 126.322C105.288 128.788 104.073 131.045 102.402 132.89C100.731 134.735 98.6555 136.11 96.362 136.893C94.0685 137.676 91.6283 137.842 89.2598 137.375C86.8913 136.909 84.6684 135.826 82.7902 134.222C80.912 132.618 79.437 130.544 78.4974 128.186C77.5577 125.827 77.1827 123.258 77.4059 120.707C77.6291 118.157 78.4435 115.705 79.7762 113.571C81.109 111.437 82.9185 109.688 85.0427 108.481V108.481Z" fill="#3F3D56"/>
<path id="Vector_68" d="M122.155 54.375C132.479 54.375 139.582 60.4647 139.582 69.2186C139.582 75.0155 136.939 79.0265 131.846 82.2177C127.056 85.1747 125.432 87.3412 125.432 91.0887C125.432 91.3924 125.375 91.6932 125.266 91.9738C125.157 92.2544 124.997 92.5094 124.795 92.7242C124.593 92.9389 124.353 93.1093 124.089 93.2255C123.825 93.3418 123.542 93.4016 123.257 93.4016H117.979C117.415 93.4016 116.874 93.1689 116.468 92.7524C116.063 92.336 115.825 91.7684 115.805 91.1693L115.796 90.8838C115.328 84.8526 117.31 81.1051 122.293 78.0018C126.946 75.0448 128.9 73.171 128.9 69.5406C128.9 65.9103 125.597 63.246 121.495 63.246C118.377 63.246 115.91 64.8599 114.778 67.4949C114.38 68.3869 113.75 69.139 112.963 69.6624C112.176 70.1858 111.265 70.4585 110.336 70.4482V70.4482C106.76 70.4482 104.398 66.4041 106.07 63.0427C108.716 57.7253 114.298 54.375 122.155 54.375ZM114.915 104.556C114.915 101.189 117.558 98.5251 120.806 98.5251C124.083 98.5251 126.725 101.16 126.725 104.556C126.725 107.952 124.083 110.587 120.806 110.587C117.53 110.587 114.915 107.952 114.915 104.556V104.556Z" fill="#00D1B2"/>
</g>
</g>
</svg>
